<svg width="199" height="195" viewBox="0 0 199 195" fill="none" xmlns="http://www.w3.org/2000/svg">
<path d="M197.497 126.732C197.497 145.755 185.774 162.318 168.357 174.198C150.95 186.072 128.056 193.109 106.239 193.109C95.6296 193.109 83.7681 188.059 71.8477 179.655C59.9552 171.271 48.1551 159.656 37.7019 146.781C27.2512 133.91 18.1822 119.824 11.7328 106.533C5.26633 93.2065 1.50243 80.8193 1.50243 71.3081C1.5027 32.9149 36.5125 1.50306 80.0753 1.50284C90.6889 1.50285 103.348 6.76883 116.482 15.5148C129.577 24.2341 142.968 36.294 155.007 49.6058C167.046 62.916 177.696 77.4357 185.327 91.0496C192.985 104.713 197.497 117.28 197.497 126.732Z" stroke="#E8AD70" stroke-width="3"/>
</svg>
