<svg width="295" height="325" viewBox="0 0 295 325" fill="none" xmlns="http://www.w3.org/2000/svg">
<path d="M293.499 211.256C293.499 243.492 275.837 271.379 249.916 291.26C223.99 311.146 189.931 322.908 157.49 322.908C141.601 322.908 123.892 314.41 106.157 300.35C88.4563 286.318 70.911 266.891 55.3775 245.378C39.8475 223.87 26.3633 200.324 16.767 178.085C7.15794 155.817 1.50081 134.984 1.5007 118.869C1.5007 54.0466 53.9771 1.50103 118.705 1.50102C134.599 1.50102 153.486 10.3597 173.009 24.9781C192.483 39.5599 212.384 59.716 230.268 81.9508C248.149 104.182 263.979 128.447 275.33 151.221C286.703 174.036 293.499 195.195 293.499 211.256Z" stroke="#E8AD70" stroke-width="3"/>
</svg>
