<svg width="492" height="540" viewBox="0 0 492 540" fill="none" xmlns="http://www.w3.org/2000/svg">
<path d="M490.5 351.605C490.5 405.647 460.827 452.328 417.421 485.552C374.01 518.78 316.995 538.434 262.662 538.434C235.826 538.434 206.072 524.124 176.424 500.67C146.812 477.243 117.488 444.837 91.5443 408.981C65.6042 373.13 43.0778 333.877 27.0422 296.792C10.9937 259.677 1.50071 224.858 1.5006 197.84C1.50061 89.4057 89.4645 1.50027 197.976 1.50021C224.817 1.50021 256.534 16.4063 289.147 40.7752C321.711 65.1076 354.959 98.7181 384.822 135.771C414.683 172.82 441.124 213.266 460.092 251.242C479.081 289.259 490.5 324.64 490.5 351.605Z" stroke="#E8AD70" stroke-width="3"/>
</svg>
