<svg width="230" height="252" viewBox="0 0 230 252" fill="none" xmlns="http://www.w3.org/2000/svg">
<path d="M228.33 164.103C228.33 189.01 214.644 210.583 194.507 225.983C174.364 241.386 147.9 250.499 122.698 250.499C110.429 250.499 96.7051 243.95 82.9101 233.047C69.1505 222.171 55.5007 207.105 43.4111 190.411C31.325 173.722 20.8319 155.452 13.3661 138.202C5.88728 120.921 1.50136 104.787 1.50133 92.3365C1.50133 42.1718 42.2321 1.50113 92.4815 1.50092C104.757 1.50092 119.4 8.3298 134.593 19.6723C149.737 30.9786 165.221 46.6141 179.142 63.8706C193.06 81.1239 205.379 99.9527 214.21 117.619C223.063 135.327 228.33 151.705 228.33 164.103Z" stroke="#E8AD70" stroke-width="3"/>
</svg>
