<svg width="558" height="612" viewBox="0 0 558 612" fill="none" xmlns="http://www.w3.org/2000/svg">
<path d="M555.768 398.535C555.768 459.869 522.115 512.834 472.916 550.519C423.713 588.208 359.091 610.499 297.506 610.499C267.045 610.499 233.3 594.249 199.705 567.653C166.146 541.085 132.92 504.339 103.527 463.686C74.1382 423.039 48.6168 378.534 30.4477 336.485C12.2657 294.406 1.50041 254.91 1.50031 224.246C1.50031 101.227 101.224 1.50061 224.24 1.50061C254.706 1.50072 290.674 18.428 327.623 46.0569C364.523 73.6495 402.194 111.759 436.026 153.766C469.857 195.77 499.814 241.627 521.305 284.687C542.818 327.787 555.768 367.924 555.768 398.535Z" stroke="#E8AD70" stroke-width="3"/>
</svg>
