<svg width="426" height="468" viewBox="0 0 426 468" fill="none" xmlns="http://www.w3.org/2000/svg">
<path d="M424.448 304.762C424.448 351.526 398.802 391.934 361.258 420.705C323.709 449.48 274.391 466.5 227.398 466.5C204.233 466.5 178.518 454.13 152.864 433.811C127.246 413.521 101.871 385.446 79.4176 354.377C56.9679 323.313 37.4731 289.302 23.5965 257.173C9.70703 225.013 1.50039 194.862 1.50028 171.482C1.50029 77.6033 77.5665 1.50009 171.398 1.50009C194.568 1.50014 221.984 14.3878 250.208 35.5024C278.382 56.5804 307.154 85.7 333.001 117.807C358.846 149.911 381.729 184.956 398.143 217.858C414.579 250.802 424.448 281.436 424.448 304.762Z" stroke="#E8AD70" stroke-width="3"/>
</svg>
