<svg width="361" height="396" viewBox="0 0 361 396" fill="none" xmlns="http://www.w3.org/2000/svg">
<path d="M359.499 257.767C359.499 297.228 337.815 331.343 306.036 355.647C274.251 379.954 232.502 394.333 192.725 394.333C173.168 394.333 151.423 383.907 129.697 366.734C108.006 349.588 86.5143 325.861 67.4933 299.595C48.4758 273.333 31.9622 244.581 20.2088 217.423C8.44234 190.234 1.50073 164.767 1.5007 145.039C1.5007 65.7674 65.863 1.50091 145.263 1.50078C164.825 1.50078 188.011 12.3644 211.92 30.2141C235.779 48.0274 260.151 72.6424 282.048 99.7877C303.943 126.93 323.328 156.558 337.231 184.369C351.155 212.223 359.499 238.093 359.499 257.767Z" stroke="#E8AD70" stroke-width="3"/>
</svg>
