<svg width="164" height="180" viewBox="0 0 164 180" fill="none" xmlns="http://www.w3.org/2000/svg">
<path d="M162.218 117.216C162.218 134.84 152.561 150.135 138.292 161.077C124.017 172.023 105.258 178.5 87.4038 178.5C78.8081 178.5 69.1269 173.893 59.3291 166.127C49.5669 158.39 39.8701 147.661 31.2739 135.758C22.6813 123.86 15.2227 110.837 9.91776 98.5462C4.60001 86.2253 1.50056 74.7637 1.50053 65.9547C1.50053 30.3561 30.3251 1.50047 65.8786 1.50039C74.4796 1.50039 84.8162 6.30804 95.6169 14.3934C106.369 22.4421 117.373 33.5826 127.274 45.8889C137.171 58.1921 145.929 71.6159 152.205 84.2036C158.501 96.833 162.218 108.46 162.218 117.216Z" stroke="#E8AD70" stroke-width="3"/>
</svg>
