<svg width="271" height="266" viewBox="0 0 271 266" fill="none" xmlns="http://www.w3.org/2000/svg">
<path d="M269.499 172.732C269.499 198.903 253.384 221.627 229.576 237.88C205.779 254.126 174.494 263.749 144.677 263.749C130.067 263.749 113.804 256.795 97.5297 245.312C81.2832 233.849 65.1778 217.979 50.9198 200.404C36.6642 182.832 24.2899 163.599 15.4869 145.441C6.66684 127.249 1.50118 110.277 1.50116 97.1915C1.50116 44.501 49.4843 1.50109 109.048 1.50108C123.662 1.50108 141.009 8.74821 158.928 20.6898C176.806 32.6049 195.077 49.0746 211.495 67.243C227.912 85.4097 242.439 105.233 252.854 123.83C263.296 142.476 269.499 159.705 269.499 172.732Z" stroke="#E8AD70" stroke-width="3"/>
</svg>
