<svg width="307" height="301" viewBox="0 0 307 301" fill="none" xmlns="http://www.w3.org/2000/svg">
<path d="M305.498 195.818C305.498 225.577 287.188 251.392 260.186 269.839C233.193 288.28 197.713 299.2 163.896 299.2C147.287 299.2 128.822 291.292 110.371 278.264C91.9475 265.255 73.6906 247.25 57.5303 227.315C41.3723 207.384 27.3456 185.566 17.3657 164.967C7.36913 144.333 1.50181 125.061 1.50168 110.182C1.50169 50.3167 55.9716 1.50172 123.534 1.50173C140.148 1.50184 159.84 9.74318 180.15 23.2886C200.421 36.8074 221.129 55.4901 239.737 76.0957C258.343 96.6999 274.811 119.186 286.617 140.283C298.451 161.429 305.498 180.998 305.498 195.818Z" stroke="#E8AD70" stroke-width="3"/>
</svg>
