<svg width="235" height="230" viewBox="0 0 235 230" fill="none" xmlns="http://www.w3.org/2000/svg">
<path d="M233.206 149.776C233.206 172.382 219.303 192.032 198.717 206.103C178.141 220.166 151.086 228.499 125.302 228.499C112.709 228.499 98.6649 222.496 84.5853 212.55C70.5333 202.623 56.5976 188.875 44.2573 173.646C31.9196 158.42 21.2114 141.755 13.5946 126.026C5.96085 110.262 1.502 95.5775 1.502 84.2749C1.50218 38.7167 42.9481 1.50157 94.4441 1.50155C107.041 1.50155 122.025 7.75973 137.532 18.1067C152.999 28.4269 168.81 42.6956 183.021 58.4405C197.231 74.1838 209.805 91.3606 218.816 107.471C227.855 123.63 233.206 138.533 233.206 149.776Z" stroke="#E8AD70" stroke-width="3"/>
</svg>
