<svg width="163" height="160" viewBox="0 0 163 160" fill="none" xmlns="http://www.w3.org/2000/svg">
<path d="M161.493 104.108C161.493 119.617 151.964 133.15 137.743 142.878C123.532 152.6 104.835 158.364 87.0203 158.364C78.4133 158.364 68.7539 154.253 59.0104 147.364C49.295 140.495 39.6475 130.972 31.0967 120.409C22.5483 109.85 15.1315 98.2962 9.85874 87.398C4.56915 76.4649 1.50658 66.3326 1.50658 58.5789C1.50665 27.2145 30.0327 1.50685 65.5892 1.50662C74.2003 1.50662 84.5132 5.79605 95.2558 12.9701C105.958 20.1173 116.909 30.008 126.76 40.931C136.609 51.8525 145.319 63.7648 151.558 74.9282C157.824 86.1405 161.493 96.4138 161.493 104.108Z" stroke="#E8AD70" stroke-width="3"/>
</svg>
