<svg width="91" height="89" viewBox="0 0 91 89" fill="none" xmlns="http://www.w3.org/2000/svg">
<path d="M89.2511 57.9567C89.2511 66.292 84.1279 73.645 76.3192 78.9856C68.52 84.3196 58.2413 87.4889 48.4544 87.4889C43.8621 87.4888 38.6212 85.2877 33.2461 81.4882C27.8992 77.7085 22.5715 72.4537 17.8382 66.6085C13.1073 60.7661 9.00584 54.3774 6.09457 48.3615C3.16641 42.3106 1.51153 36.7784 1.51143 32.6112C1.51143 15.5916 17.0205 1.51099 36.5219 1.51099C41.1184 1.51102 46.7252 3.81159 52.6677 7.77923C58.57 11.72 64.6269 17.186 70.0844 23.2364C75.5404 29.2851 80.3586 35.8762 83.8043 42.0401C87.2774 48.2533 89.2511 53.849 89.2511 57.9567Z" stroke="#E8AD70" stroke-width="3"/>
</svg>
