<svg width="127" height="124" viewBox="0 0 127 124" fill="none" xmlns="http://www.w3.org/2000/svg">
<path d="M125.296 80.7488C125.296 92.6266 117.975 103.033 106.967 110.542C95.9677 118.044 81.4879 122.496 67.6944 122.496C61.0966 122.496 53.6498 119.349 46.0953 114.024C38.5685 108.718 31.0849 101.354 24.4471 93.1795C17.8118 85.0075 12.0572 76.0677 7.96792 67.6405C3.86157 59.178 1.50433 51.3737 1.50433 45.4351C1.50447 21.332 23.506 1.50425 51.0233 1.50425C57.6251 1.5043 65.5809 4.78942 73.9181 10.3408C82.2152 15.8655 90.7142 23.5164 98.3632 31.9732C106.011 40.4286 112.771 49.6478 117.61 58.281C122.477 66.9634 125.296 74.8697 125.296 80.7488Z" stroke="#E8AD70" stroke-width="3"/>
</svg>
